<svg width="310" height="462" fill="none" xmlns="http://www.w3.org/2000/svg"><circle cx="136.5" cy="116.5" r="28.5" fill="#fff" fill-opacity=".2"/><circle cx="172.5" cy="394.5" r="7.5" fill="#fff" fill-opacity=".2"/><circle cx="276.5" cy="145.5" r="14.5" fill="#fff" fill-opacity=".2"/><path fill="#fff" fill-opacity=".2" d="m0 368.687 10.108-11.067 28.807 25.976-10.108 11.067zM195 273.067 205.108 262l28.807 25.976-10.108 11.067zM233 11.067 243.108 0l28.807 25.976-10.108 11.066zM51.038 258.087l8.218-88.253 72.813 51.198-81.03 37.055ZM255.026 446.257l4.305-46.24 38.15 26.825-42.455 19.415ZM33.5 25.757 58 50.1 33.5 74.443 9 50.1l24.5-24.343ZM293.5 314l16.5 16.5-16.5 16.5-16.5-16.5 16.5-16.5Z"/></svg>