<svg width="96" height="28" fill="none" xmlns="http://www.w3.org/2000/svg"><circle cx="14" cy="14" r="13.5" stroke="#C4C4C4"/><path d="M20 9.005c-.522.369-1.1.65-1.713.835A2.444 2.444 0 0 0 14 11.476v.546A5.814 5.814 0 0 1 9.09 9.55s-2.18 4.909 2.728 7.09A6.35 6.35 0 0 1 8 17.734c4.91 2.727 10.91 0 10.91-6.273-.001-.152-.016-.304-.044-.453A4.212 4.212 0 0 0 20 9.005Z" fill="#545454"/><circle cx="48" cy="14" r="13.5" stroke="#C4C4C4"/><g clip-path="url('#clip0_48_118')"><path d="M51.05 8H49.4a2.75 2.75 0 0 0-2.75 2.75v1.65H45v2.2h1.65V19h2.2v-4.4h1.65l.55-2.2h-2.2v-1.65a.55.55 0 0 1 .55-.55h1.65V8Z" fill="#545454"/></g><circle cx="82" cy="14" r="13.5" stroke="#C4C4C4"/><g clip-path="url('#clip1_48_118')" fill="#545454"><path d="M83.632 11.842a2.842 2.842 0 0 1 2.842 2.842V18h-1.895v-3.316a.947.947 0 0 0-1.895 0V18H80.79v-3.316a2.842 2.842 0 0 1 2.843-2.842ZM78.895 12.316H77V18h1.895v-5.684ZM77.947 10.895a.947.947 0 1 0 0-1.895.947.947 0 0 0 0 1.895Z"/></g><defs><clipPath id="clip0_48_118"><path fill="#fff" transform="translate(45 8)" d="M0 0h7v11H0z"/></clipPath><clipPath id="clip1_48_118"><path fill="#fff" transform="translate(77 9)" d="M0 0h10v9H0z"/></clipPath></defs></svg>